Coordinates
version=1
nRows=16
nColumns=36
inDegrees=yes

Units are S.I. units (second, meters, Newtons, ...)
If the header above contains a line with 'inDegrees', this indicates whether rotational values are in degrees (yes) or radians (no).

endheader
time	pelvis_tilt	pelvis_list	pelvis_rotation	pelvis_tx	pelvis_ty	pelvis_tz	hip_flexion_r	hip_adduction_r	hip_rotation_r	knee_angle_r	knee_angle_r_beta	ankle_angle_r	subtalar_angle_r	mtp_angle_r	hip_flexion_l	hip_adduction_l	hip_rotation_l	knee_angle_l	knee_angle_l_beta	ankle_angle_l	subtalar_angle_l	mtp_angle_l	lumbar_extension	lumbar_bending	lumbar_rotation	arm_flex_r	arm_add_r	arm_rot_r	elbow_flex_r	pro_sup_r	arm_flex_l	arm_add_l	arm_rot_l	elbow_flex_l	pro_sup_l
      1.58333330	      4.54064282	      1.08471878	      2.96459003	      0.35888882	      0.92682314	     -0.08974164	     -9.64197259	     -5.62840633	     -8.52841259	      0.94050847	      0.01641497	      3.87337222	    -11.68362194	     -7.49999987	     -6.86274305	     -1.90197394	      1.22143052	      1.34352874	      0.02344900	     -0.49124076	    -12.36865616	     -7.49999987	     -9.56864903	     -0.69133276	      1.61770914	      0.01786274	     -1.91795080	    -42.66752170	     96.41543831	     59.90992472	     -2.05270771	     -5.85093611	     -7.20074582	     97.07976607	     68.46908257
      1.60000000	      4.52152195	      1.11520405	      2.92961093	      0.35466461	      0.92970755	     -0.09394285	     -9.58167303	     -5.73871840	     -8.47405276	      0.96956679	      0.01692213	      3.87976162	    -11.69909524	     -7.49999987	     -6.83214031	     -1.80239693	      1.26864967	      1.28005840	      0.02234123	     -0.44662789	    -12.35182319	     -7.49999987	     -9.58261425	     -0.62384055	      1.39044520	      0.06477262	     -2.19331671	    -42.93124158	     96.44888703	     59.89049159	     -2.06131017	     -5.78672320	     -7.23053057	     97.05082843	     68.47394671
      1.61666670	      4.53352741	      1.10589795	      2.97422866	      0.35892797	      0.92699582	     -0.08962903	     -9.60284938	     -5.71402195	     -8.35935714	      0.99376074	      0.01734440	      3.88445352	    -11.95710555	     -7.49999987	     -6.85727805	     -1.82175842	      1.49442945	      1.27050234	      0.02217445	     -0.34218894	    -12.28284002	     -7.49999987	     -9.58664311	     -0.64314094	      1.32841547	      0.41847512	     -1.88311183	    -44.47247996	     96.58105763	     59.67577985	     -2.16914319	     -5.58459966	     -7.91290785	     97.24113290	     68.48609540
      1.63333330	      4.53481459	      1.08577609	      2.94348792	      0.35884358	      0.92697895	     -0.08945314	     -9.61705727	     -5.68693997	     -8.16924140	      1.01821924	      0.01777128	      3.77244303	    -12.34154815	     -7.49999987	     -6.89584329	     -1.84705027	      1.51203040	      1.24391995	      0.02171050	     -0.18490182	    -12.06803499	     -7.49999987	     -9.56767888	     -0.63639802	      1.54246637	      0.18163030	     -1.81144244	    -45.58680310	     97.01265970	     59.03256292	     -2.03005278	     -5.62741513	     -7.70855697	     97.24375335	     66.73808404
      1.65000000	      4.54304519	      1.08560207	      2.94038149	      0.35887408	      0.93012176	     -0.08976141	     -9.65021564	     -5.68280923	     -8.20024061	      1.02675518	      0.01792026	      3.89002038	    -12.14838347	     -7.49999987	     -6.90111682	     -1.84715737	      1.71888595	      1.25006307	      0.02181772	     -0.29010888	    -12.32823989	     -7.49999987	     -9.50645099	     -0.61896165	      1.51205575	     -0.05792240	     -1.71379579	    -46.16303564	     97.45707692	     58.61586536	     -2.10116433	     -5.58146773	     -7.90952836	     97.21628224	     65.68028337
      1.66666670	      4.58563209	      1.11211692	      2.89611889	      0.35883684	      0.93003900	     -0.08957979	     -9.71531584	     -5.69300577	     -8.16271902	      1.02982476	      0.01797383	      3.89092981	    -12.08465441	     -7.49999987	     -6.94781116	     -1.82715152	      1.64312778	      1.29101683	      0.02253249	     -0.14186354	    -12.09190906	     -7.49999987	     -9.48364571	     -0.66062718	      1.46682616	     -0.28033809	     -1.65201150	    -46.70587264	     97.74035319	     58.51780766	     -2.07262166	     -5.62226444	     -8.27458356	     97.11341900	     65.04167594
      1.68333330	      4.57212512	      1.13757776	      2.87914092	      0.35894194	      0.93017965	     -0.08971360	     -9.72942558	     -5.72212985	     -8.09859059	      1.00614171	      0.01756049	      3.81376172	    -12.18882081	     -7.49999987	     -6.90290743	     -1.79569813	      1.70603809	      1.36050756	      0.02374534	     -0.30412057	    -12.28726011	     -7.49999987	     -9.37046858	     -0.67260212	      1.47846435	     -0.62268313	     -1.55383447	    -47.36866909	     97.97967366	     56.36849507	     -2.03513563	     -5.57558168	     -8.75584260	     96.77673744	     68.00051265
      1.70000000	      4.62151987	      1.19420445	      2.92449986	      0.35889772	      0.93007452	     -0.08966309	     -9.81085588	     -5.77199495	     -8.33942692	      0.98728196	      0.01723132	      3.99884199	    -11.75418118	     -7.49999987	     -6.93255356	     -1.76929489	      1.68537427	      1.44791157	      0.02527082	     -0.26951334	    -12.18666230	     -7.49999987	     -9.34050086	     -0.69782024	      1.37533666	     -0.67223520	     -1.22287394	    -48.16240958	     98.10540054	     57.25159154	     -2.07498497	     -5.66424213	     -9.20228864	     96.75372200	     66.31683241
      1.71666670	      4.61068177	      1.22045620	      2.88284569	      0.35893994	      0.93023649	     -0.08968442	     -9.79414865	     -5.81366249	     -8.11453916	      0.97043619	      0.01693731	      3.79300804	    -12.14630765	     -7.49999987	     -6.92133271	     -1.75489925	      1.70575994	      1.49876554	      0.02615839	     -0.43297493	    -12.44303777	     -7.49999987	     -9.24973716	     -0.68667979	      1.56755686	     -0.74119896	     -0.85939962	    -49.11531081	     98.11820357	     57.76801712	     -1.93470239	     -5.66401953	     -9.47229477	     96.62033447	     65.21905186
      1.73333330	      4.61708190	      1.26901872	      2.91026589	      0.35894064	      0.93009810	     -0.08962900	     -9.82772056	     -5.85378144	     -8.19576423	      0.94980300	      0.01657719	      3.81971656	    -12.04965981	     -7.49999987	     -6.90879379	     -1.73744650	      1.75539215	      1.57689179	      0.02752195	     -0.56225417	    -12.57977349	     -7.49999987	     -9.19767030	     -0.74724315	      1.57645643	     -0.80681293	     -0.65071650	    -49.32103433	     97.86202872	     57.71269970	     -1.88856237	     -5.59596831	     -9.83154809	     96.49085883	     65.16103348
      1.75000000	      4.68242722	      1.28513994	      2.84642683	      0.35905610	      0.92751423	     -0.08934753	     -9.88035635	     -5.85902914	     -7.98218273	      0.95088099	      0.01659600	      3.83050685	    -12.22469633	     -7.49999987	     -6.98968490	     -1.73642856	      1.43583592	      1.66935764	      0.02913579	     -0.27012185	    -12.19380362	     -7.49999987	     -9.21558132	     -0.75231677	      1.68549461	     -0.90067257	     -0.61311981	    -49.34247402	     97.59647250	     58.43252187	     -1.80255832	     -5.56381552	    -10.06785675	     96.46362653	     63.83306462
      1.76666670	      4.57865539	      1.33195312	      2.94387495	      0.35907714	      0.92728397	     -0.08939447	     -9.79002471	     -5.89904084	     -8.05798792	      0.93141500	      0.01625626	      3.94942665	    -12.11535667	     -7.49999987	     -6.84016066	     -1.67624611	      1.63803388	      1.73472005	      0.03027658	     -0.35151595	    -12.38174255	     -7.49999987	     -9.07069551	     -0.84144051	      1.61901424	     -1.14677446	     -0.57853404	    -49.09049770	     97.43248780	     56.20602574	     -1.82366646	     -5.52071261	    -10.48603440	     96.45836884	     67.04424114
      1.78333330	      4.54659677	      1.36934093	      2.95186506	      0.35917581	      0.92756444	     -0.08949743	     -9.73875717	     -5.93958711	     -7.93128253	      0.93834939	      0.01637729	      3.94739108	    -12.27338251	     -7.49999987	     -6.77789476	     -1.64049008	      1.66107912	      1.77790538	      0.03103030	     -0.35307110	    -12.39764989	     -7.49999987	     -9.00830064	     -0.89437469	      1.64680895	     -1.31565517	     -0.37532165	    -48.87899227	     97.26953691	     57.38834136	     -1.78776274	     -5.53841109	    -10.58651494	     96.51952911	     65.37471096
      1.80000000	      4.50427399	      1.37370174	      3.00606994	      0.35910986	      0.93034333	     -0.08968459	     -9.70200630	     -5.93389396	     -7.99443627	      0.91459944	      0.01596277	      4.00713696	    -12.07116775	     -7.49999987	     -6.74952756	     -1.63744192	      1.69178990	      1.70829136	      0.02981531	     -0.29555603	    -12.20709712	     -7.49999987	     -8.92572446	     -0.91581979	      1.61589111	     -1.46070212	     -0.21509501	    -48.73413961	     97.18189472	     56.39484809	     -1.73375444	     -5.47340286	    -10.83659483	     96.40486622	     67.02636570
      1.81666670	      4.46234010	      1.36835935	      3.00706312	      0.35915406	      0.93043373	     -0.08974568	     -9.65319953	     -5.92926977	     -7.87893257	      0.89953799	      0.01569990	      3.91689341	    -12.19656684	     -7.49999987	     -6.69705464	     -1.63366240	      1.71615308	      1.68690123	      0.02944198	     -0.33582054	    -12.12009694	     -7.49999987	     -8.86712002	     -0.93553552	      1.66255869	     -1.48099188	      0.03070714	    -48.98217168	     97.27726473	     57.71089339	     -1.70287188	     -5.45464136	    -10.84428348	     96.50772571	     64.99547301
      1.83333330	      4.40674040	      1.36386736	      3.07137000	      0.35908148	      0.93008472	     -0.08975949	     -9.60149105	     -5.91414249	     -7.94265300	      0.88728123	      0.01548598	      3.94888133	    -12.01389553	     -7.49999987	     -6.66409246	     -1.62759556	      1.86541589	      1.59762226	      0.02788377	     -0.35701642	    -12.10616900	     -7.49999987	     -8.80533500	     -0.96341352	      1.65213281	     -1.36709370	      0.34789459	    -49.58201128	     97.42819869	     57.73240999	     -1.71927717	     -5.40502724	    -11.10218822	     96.60152000	     64.84316100
